<svg width="110" height="110" viewBox="0 0 110 110" fill="none" xmlns="http://www.w3.org/2000/svg">
<path d="M40.5587 95.5698C34.9532 95.6049 29.4497 94.0659 24.6717 91.1323L15.4217 92.855C14.41 93.0386 13.3709 92.7144 12.6405 91.9917C11.9101 91.2651 11.5897 90.2222 11.7773 89.2065L13.5078 79.937C0.523754 59.32 17.3359 30.554 41.6638 31.675C50.613 13.339 78.6558 9.04999 92.4608 24.218C97.453 29.2492 100.64 35.788 101.523 42.82C102.406 49.852 100.941 56.976 97.3475 63.086L99.0819 72.3712C99.2694 73.3868 98.949 74.4259 98.2186 75.1564C97.4881 75.883 96.4491 76.2072 95.4334 76.0197L86.1482 74.2853C81.031 77.3165 75.1642 78.8517 69.2182 78.7111C66.4018 83.84 62.2494 88.1173 57.2062 91.0821C52.1632 94.0509 46.4097 95.601 40.5587 95.5698ZM25.3317 84.7068C54.1247 102.055 82.3477 66.2148 56.8627 43.4018C34.0537 25.6948 4.06973 53.4248 19.4057 77.5738C20.6362 79.0504 19.0698 83.2222 18.7573 85.8746C19.0112 85.8472 25.2653 84.6092 25.3317 84.7068ZM72.5347 58.4798C73.3785 63.1126 73.1363 67.8743 71.816 72.3978C76.0933 72.0892 80.2222 70.7025 83.824 68.3744C84.4959 67.9369 85.3123 67.7728 86.1013 67.9173L92.1013 69.0384C91.8044 66.4759 90.2224 62.1907 91.4372 60.7611C94.6208 55.808 96.0153 49.9091 95.3825 44.0501C94.7497 38.1946 92.1364 32.7301 87.9684 28.5621C77.7494 17.1601 56.3904 19.5426 48.4334 32.4801C54.5311 34.0192 60.0544 37.2965 64.3314 41.9098C68.6087 46.527 71.4605 52.2808 72.5347 58.4798ZM45.9327 72.9678H29.9407C28.2337 72.9443 26.8587 71.5537 26.8587 69.8428C26.8587 68.1358 28.2337 66.7451 29.9407 66.7178H45.9327C47.6397 66.7451 49.0108 68.1358 49.0147 69.8428C49.0147 71.5537 47.6397 72.9444 45.9327 72.9678ZM52.0811 60.5148H29.9401C28.2331 60.4913 26.8581 59.1007 26.8581 57.3898C26.8581 55.6828 28.2331 54.2882 29.9401 54.2648H52.0811C53.7881 54.2882 55.1631 55.6828 55.1631 57.3898C55.1631 59.1007 53.7881 60.4914 52.0811 60.5148Z" fill="#EE5ABD"/>
</svg>
