<svg width="110" height="110" viewBox="0 0 110 110" fill="none" xmlns="http://www.w3.org/2000/svg">
<path d="M51.478 103.72C50.5588 103.988 49.5955 104.071 48.644 103.965C47.6924 103.858 46.7714 103.564 45.9344 103.099C45.0973 102.634 44.3608 102.007 43.7676 101.256C43.1743 100.504 42.736 99.6421 42.478 98.72L40.588 91.94H30.308C28.9948 91.94 27.6945 91.6813 26.4812 91.1788C25.268 90.6762 24.1656 89.9397 23.237 89.0111C22.3084 88.0825 21.5718 86.9801 21.0693 85.7668C20.5667 84.5536 20.308 83.2532 20.308 81.94V71.79L17.658 70.91C16.757 70.611 15.9286 70.1266 15.2261 69.488C14.5235 68.8494 13.9625 68.0708 13.5791 67.2022C13.1958 66.3337 12.9985 65.3946 13 64.4452C13.0015 63.4958 13.2019 62.5573 13.588 61.69L19.208 49.07C19.9345 47.4468 20.3093 45.6883 20.308 43.91C20.3151 35.9968 22.7925 28.2831 27.3943 21.8456C31.9962 15.408 38.4929 10.5676 45.978 8C46.3514 10.56 46.6847 13.1733 46.978 15.84C41.3994 18.0993 36.6202 21.9693 33.2504 26.9563C29.8806 31.9433 28.073 37.8212 28.058 43.84C28.0627 46.6965 27.4629 49.5217 26.298 52.13L21.038 63.92L24.248 65C25.3487 65.3624 26.3069 66.0632 26.9857 67.0024C27.6645 67.9416 28.0293 69.0712 28.028 70.23V82C28.028 82.2994 28.087 82.5959 28.2016 82.8725C28.3162 83.1491 28.4841 83.4005 28.6958 83.6122C28.9076 83.8239 29.1589 83.9919 29.4355 84.1064C29.7122 84.221 30.0086 84.28 30.308 84.28H46.378L49.788 96.28L84.218 86.45L78.5181 66.45L80.048 64.86C83.1466 61.6446 85.4931 57.7817 86.9182 53.5499C88.3433 49.318 88.8116 44.8226 88.2893 40.3879C87.767 35.9531 86.2672 31.6895 83.8979 27.9046C81.5285 24.1196 78.3488 20.9075 74.588 18.5C74.348 15.38 74.048 12.3133 73.688 9.3C79.0666 11.6969 83.8123 15.3147 87.5483 19.8661C91.2843 24.4176 93.9078 29.7774 95.2104 35.5199C96.5131 41.2625 96.459 47.2296 95.0526 52.9476C93.6461 58.6656 90.9259 63.977 87.108 68.46L91.7381 84.7C92.0048 85.6192 92.0869 86.5822 91.9797 87.5333C91.8724 88.4844 91.5778 89.4049 91.113 90.2416C90.6482 91.0783 90.0222 91.8147 89.2713 92.4083C88.5205 93.0019 87.6595 93.4409 86.7381 93.7L51.478 103.72ZM45.408 66.36C44.3622 65.7303 43.1398 65.4582 41.9256 65.585C40.7114 65.7117 39.5715 66.2303 38.6783 67.0625C37.785 67.8946 37.187 68.9949 36.9747 70.1971C36.7624 71.3993 36.9473 72.6379 37.5014 73.7256C38.0556 74.8134 38.9488 75.6912 40.0461 76.2262C41.1434 76.7612 42.3851 76.9243 43.5834 76.6909C44.7816 76.4576 45.8713 75.8404 46.6877 74.9327C47.504 74.025 48.0026 72.8762 48.108 71.66C52.678 68.869 56.3905 64.8728 58.838 60.11C61.7042 60.6386 64.665 60.1669 67.2251 58.7738C69.7851 57.3807 71.7891 55.1508 72.9018 52.457C74.0144 49.7632 74.1682 46.769 73.3375 43.9754C72.5068 41.1817 70.7418 38.7581 68.338 37.11C68.3289 27.0006 67.6608 16.9025 66.338 6.88C64.5562 6.48829 62.748 6.22759 60.928 6.1C60.0347 6.03334 59.138 6 58.238 6C56.4247 5.99933 54.6136 6.12631 52.818 6.38C54.2679 16.3417 55.0131 26.3934 55.048 36.46C53.1995 37.4743 51.6324 38.9326 50.4879 40.7035C49.3433 42.4743 48.6573 44.5021 48.4916 46.6041C48.326 48.7061 48.6859 50.8163 49.5389 52.7446C50.3919 54.6729 51.7112 56.3586 53.378 57.65C51.5432 61.2104 48.792 64.2171 45.408 66.36Z" fill="#EE5ABD"/>
</svg>
